<svg width="405" height="108" viewBox="0 0 405 108" fill="none" xmlns="http://www.w3.org/2000/svg">
<g id="logo">
<g id="Shape" filter="url(#filter0_d_538_6)">
<path d="M67.9262 81.4827C65.9001 82.7109 63.2727 82.0519 62.0499 80.0089C60.8346 77.9613 61.4867 75.306 63.5082 74.0702L85.3802 60.792C86.8737 59.8854 87.7855 58.265 87.7855 56.518V45.2429C87.7855 44.4634 86.9332 43.9836 86.2668 44.388L67.9262 55.5172C65.8889 56.7378 63.2582 56.0586 62.0499 54C60.8346 51.9524 61.4867 49.2971 63.5082 48.0613L85.8613 34.4911C87.056 33.7658 87.7855 32.4695 87.7855 31.0719V30.1585C87.7789 25.2363 85.023 20.7398 80.6653 18.5412L50.6404 3.36936C47.0216 1.54355 42.7639 1.54355 39.1451 3.36936L9.1202 18.5412C4.76258 20.7398 2.00666 25.2363 2 30.1585V77.8415C2.00666 82.7637 4.76258 87.2602 9.1202 89.4588L39.1451 104.631C42.7639 106.456 47.0216 106.456 50.6404 104.631L80.6653 89.4588C85.023 87.2602 87.7789 82.7637 87.7855 77.8415V73.0217C87.7855 71.4641 86.0837 70.5043 84.7507 71.3102L67.9262 81.4827Z" fill="white"/>
</g>
<path id="lucidata" d="M100 29.575V82H109.075V29.575H100ZM120.29 45.025V64.45C120.29 75.925 126.74 82.6 135.59 82.6C140.765 82.6 144.29 80.8 148.115 77.05L148.715 82.075H156.89V45.025H147.815V63.925C147.815 69.55 143.99 74.275 138.365 74.275C132.515 74.275 129.44 70 129.44 64.375V45.025H120.29ZM193.538 71.275C191.288 73.525 188.363 74.35 185.438 74.35C179.738 74.35 174.938 70.6 174.938 63.55C174.938 57.1 179.438 52.6 185.588 52.6C188.138 52.6 190.838 53.575 193.013 55.525L198.788 49.45C194.738 45.475 190.688 43.975 185.438 43.975C174.713 43.975 165.788 50.425 165.788 63.55C165.788 76.675 174.713 83.125 185.438 83.125C190.913 83.125 195.413 81.475 199.688 77.275L193.538 71.275ZM215.855 44.875V82H206.705V44.875H215.855ZM205.88 34.6C205.88 41.725 216.68 41.725 216.68 34.6C216.68 27.475 205.88 27.475 205.88 34.6ZM245.062 52.675C250.837 52.675 255.787 57.025 255.787 63.475C255.787 70.15 250.837 74.35 245.062 74.35C239.212 74.35 234.562 69.925 234.562 63.475C234.562 56.8 239.212 52.675 245.062 52.675ZM256.387 29.575V50.05C254.212 46.225 248.137 44.125 244.237 44.125C233.437 44.125 225.412 50.725 225.412 63.475C225.412 75.625 233.587 82.825 244.462 82.825C248.962 82.825 253.537 81.325 256.387 76.9L256.987 82H265.537V29.575H256.387ZM305.524 50.125C303.424 46.45 298.699 44.125 293.749 44.125C282.949 44.05 274.474 50.725 274.474 63.475C274.474 76.45 282.574 83.2 293.524 83.125C297.649 83.05 303.424 80.95 305.524 76.6L305.974 82H314.599V45.025H305.824L305.524 50.125ZM294.574 52.3C308.974 52.3 308.974 74.725 294.574 74.725C288.499 74.725 283.624 70.525 283.624 63.475C283.624 56.425 288.499 52.3 294.574 52.3ZM327.487 35.575V45.1H320.587V52.975H327.487V68.95C327.487 78.175 332.737 82.75 340.762 82.45C343.537 82.375 345.712 81.925 348.337 80.875L345.787 73.075C344.437 73.75 342.787 74.2 341.362 74.2C338.512 74.2 336.562 72.475 336.562 68.95V52.975H346.837V45.1H336.637V34.6L327.487 35.575ZM385.718 50.125C383.618 46.45 378.893 44.125 373.943 44.125C363.143 44.05 354.668 50.725 354.668 63.475C354.668 76.45 362.768 83.2 373.718 83.125C377.843 83.05 383.618 80.95 385.718 76.6L386.168 82H394.793V45.025H386.018L385.718 50.125ZM374.768 52.3C389.168 52.3 389.168 74.725 374.768 74.725C368.693 74.725 363.818 70.525 363.818 63.475C363.818 56.425 368.693 52.3 374.768 52.3Z" fill="white"/>
</g>
<defs>
<filter id="filter0_d_538_6" x="0" y="0" width="89.7856" height="108" filterUnits="userSpaceOnUse" color-interpolation-filters="sRGB">
<feFlood flood-opacity="0" result="BackgroundImageFix"/>
<feColorMatrix in="SourceAlpha" type="matrix" values="0 0 0 0 0 0 0 0 0 0 0 0 0 0 0 0 0 0 127 0" result="hardAlpha"/>
<feOffset/>
<feGaussianBlur stdDeviation="1"/>
<feColorMatrix type="matrix" values="0 0 0 0 0 0 0 0 0 0 0 0 0 0 0 0 0 0 0.15 0"/>
<feBlend mode="normal" in2="BackgroundImageFix" result="effect1_dropShadow_538_6"/>
<feBlend mode="normal" in="SourceGraphic" in2="effect1_dropShadow_538_6" result="shape"/>
</filter>
</defs>
</svg>
